# xmcd
#
# Track frame offsets:
#	150
#	12387
#	24960
#	35445
#	46228
#	59803
#	71359
#	82917
#	94679
#	107172
#
# Disc length: 1557 seconds
#
# Revision: 1
# Processed by: cddbd v1.5.2PL0 Copyright (c) Steve Scherf et al.
# Submitted via: audiograbber 1.83.01
#
DISCID=7706130a
DTITLE=Various Artist - Country Wedding
DYEAR=2003
DGENRE=Country
TTITLE0=Lynn Anderson - Stand By Your Man
TTITLE1=Willie Nelson - Any Old Arms Won't Do
TTITLE2=Faron Young - If You Ain't Lovin' (You Ain't Livin')
TTITLE3=Dolly Parton - It Wasn't God Who Made Honky Tonk Angels
TTITLE4=Johnny Paycheck - Somebody Loves Me
TTITLE5=Don Gibson - I Can't Stop Loving You
TTITLE6=Kenny Rogers and The First Edition - Poem For My Little Lady
TTITLE7=Donna Fargo - The Happiest Girl In The Whole U.S.A.
TTITLE8=Freddy Fender - Before The Next Teardrop Falls (Live)
TTITLE9=Kitty Wells - Love Makes The World Go 'Round
EXTD=
EXTT0=
EXTT1=
EXTT2=
EXTT3=
EXTT4=
EXTT5=
EXTT6=
EXTT7=
EXTT8=
EXTT9=
PLAYORDER=
